PathFileType	4	(X/Y/Z)	Patient4_TMGait_0pt7_02_right_27.trc.trc
DataRate	CameraRate	NumFrames	NumMarkers	Units	OrigDataRate	OrigDataStartFrame	OrigNumFrames
86.419753086420	86.419753086420	4	33	mm	86.419753086420	53	       141
Frame#	Time	Sacral			L.Shoulder			Chest			R.Shoulder			Neck			R.ASIS			L.ASIS			R.Thigh.Superior			R.Thigh.Lateral			R.Thigh.Inferior			R.Patella			L.Thigh.Superior			L.Thigh.Lateral			L.Thigh.Inferior			L.Patella			L.Shank.Superior			L.Shank.Lateral			L.Shank.Inferior			R.Shank.Superior			R.Shank.Lateral			R.Shank.Inferior			R.Heel			R.Midfoot.Superior			R.Midfoot.Lateral			R.Toe			L.Heel			L.Midfoot.Lateral			L.Midfoot.Superior			L.Toe			L.Elbow			L.Wrist			R.Elbow			R.Wrist			
		X1	Y1	Z1	X2	Y2	Z2	X3	Y3	Z3	X4	Y4	Z4	X5	Y5	Z5	X6	Y6	Z6	X7	Y7	Z7	X8	Y8	Z8	X9	Y9	Z9	X10	Y10	Z10	X11	Y11	Z11	X12	Y12	Z12	X13	Y13	Z13	X14	Y14	Z14	X15	Y15	Z15	X16	Y16	Z16	X17	Y17	Z17	X18	Y18	Z18	X19	Y19	Z19	X20	Y20	Z20	X21	Y21	Z21	X22	Y22	Z22	X23	Y23	Z23	X24	Y24	Z24	X25	Y25	Z25	X26	Y26	Z26	X27	Y27	Z27	X28	Y28	Z28	X29	Y29	Z29	X30	Y30	Z30	X31	Y31	Z31	X32	Y32	Z32	X33	Y33	Z33	

53	30.801714285714	820.602118359179	1014.261767147692	538.365309555621	1011.341357362089	1431.015419091277	343.326920119350	1129.696842554084	1349.394623339282	488.589503643413	1079.285476348920	1427.883447106384	672.638348505753	1040.873624326185	1489.495483202657	497.703049361065	1052.099769589887	941.626373766458	638.082964989031	1017.696432051665	958.899553416198	364.975207353693	1084.342063366311	742.394875310869	612.717124748770	1002.255643655223	634.614019220547	672.183753555726	1079.002956828004	582.890099985853	592.044775053109	1077.058469420958	494.425692317753	598.561776881928	1114.588774209147	808.831809129564	386.375155155312	1091.728798483105	682.944119634097	295.697312486780	1207.965468763302	637.180241023474	349.379969998603	1240.016256896525	555.543842388762	334.519145964831	1195.600639801466	475.942148785172	326.582917312693	1075.061179217286	389.084406476710	281.818047832449	1113.316582661096	261.643142312499	329.100849435127	1047.912403820012	405.879280052525	602.980045148147	972.406376917426	301.677859567787	659.587231987403	1017.918574544812	207.970411769604	595.458988185144	884.356639157478	42.689816822863	555.435742041702	1056.187375055263	98.805483053995	596.248044395542	966.715367616248	36.280731681215	630.758694974438	1174.771998273228	46.305181342713	622.445934142473	964.038341484894	126.261988678025	371.750665790355	1025.687046393674	116.207296304539	282.682836025682	1121.423730745347	161.762394346938	299.728560732773	1232.345277854799	92.075118010074	251.518409133882	919.181243433065	1085.977987987304	240.991898147997	974.129885407278	830.626464680972	228.284986836667	1120.585521404292	1078.821145493299	791.504614489206	1283.320328173466	875.660696047405	757.712026394560	
54	30.813285714286	818.663139924753	1014.011555006833	538.334589710691	1009.400292990090	1430.842503894116	343.536554438385	1127.882419358288	1349.100425473730	488.599258010321	1077.724267117485	1427.297811604454	672.856696746758	1039.192861971807	1489.174615478438	498.057227348076	1050.133089168081	941.794262160397	638.236993044113	1015.881894030351	958.335190521541	364.827583295864	1080.668705842557	741.723741893197	612.274983501050	997.921428048849	634.393843455533	672.182342753076	1073.689698910087	582.136477008867	591.692980945058	1070.906295811475	493.828815779795	598.048794333993	1112.739096038431	809.505670627001	386.834550249253	1091.211681279779	683.481970724786	295.686976510296	1207.394715239899	638.672984982512	349.899521724179	1240.831396984374	558.716334941410	335.192599334204	1199.958427634118	478.663870418872	326.434551827242	1085.059968397819	385.970924144005	279.375338612394	1129.741574718777	260.092839587863	326.188080792416	1041.536989091373	405.303630895177	602.562197069145	965.789557381142	301.377879541304	659.426446218344	1010.519839958378	207.538320626765	595.058468033652	876.194727992730	42.544258123396	555.404512268178	1047.897502838087	98.689683897513	596.023215407824	958.517274610002	36.269276138386	630.733828590957	1166.559162155452	46.364984530592	622.468402476150	987.457558106476	117.199734235772	366.106700841108	1050.923332826181	110.188131891380	278.072820072593	1144.083779320197	160.084221675735	296.630376337298	1258.832968989898	95.572743008410	250.303006835998	909.701539180267	1087.719849496295	242.375011611639	945.377231718566	829.212585621862	228.997869633726	1131.069054418380	1079.866334614140	790.400891314052	1306.010663219535	888.231197790624	751.401771734565	
55	30.824857142857	816.830432965756	1013.773148595208	538.090290887588	1007.638966351355	1430.684055463619	343.570204758356	1126.164690657024	1348.819165048802	488.495410955305	1076.140737895732	1426.737607526627	672.913640758494	1037.569155741219	1488.850768115092	498.250118084273	1048.211525010264	941.919018201248	638.288150797410	1014.319433747051	957.733328675566	364.553935178158	1077.006200800621	740.980791720578	611.727359309597	993.585993500484	634.146964696481	672.048509134959	1068.323529562618	581.335693765958	591.174802730669	1064.696313441456	493.210063349282	597.359413203507	1110.762757370240	809.607073721493	387.258373191927	1090.163670899197	683.430662018993	295.755245540032	1206.194016872990	639.331454887316	350.551302397321	1240.849755949630	561.159387962008	336.223098362834	1203.517046031989	480.930856786772	326.698475843554	1094.805878705329	382.765368533097	276.922886333792	1145.539891396757	258.806945785612	323.614271988791	1035.129549375252	404.716532459142	602.006401319106	959.204928022429	301.057937728784	659.217975923220	1003.100891902103	207.094807944856	594.568043186121	868.017780185559	42.399366838558	555.363212600998	1039.567408464157	98.547178533512	595.751221354262	950.308588006068	36.256627706642	630.693116775912	1158.341936016676	46.433892046277	622.477829944429	1010.430882839890	108.923302899943	360.304343126874	1075.974901411516	104.884722949258	273.664247717525	1166.266867936157	158.907615472888	294.066520120414	1284.687648819306	99.596990208140	250.319784740005	900.410229825432	1089.841913509559	243.388744603990	917.882615132101	829.698951214780	230.038060085144	1140.942814832284	1081.338165653488	789.027476013482	1327.460704000506	902.492978001226	744.382384566968	
56	30.836428571429	815.135576094814	1013.555045675037	537.656692685246	1006.058470258002	1430.543193445593	343.421947921916	1124.555355593056	1348.567444438892	488.272358808483	1074.555630614597	1426.237337316589	672.795773363291	1036.009846248383	1488.539908212856	498.263581709486	1046.366130190159	941.999710741912	638.228021961823	1012.995733480318	957.126835714589	364.173572278426	1073.386750976108	740.182840309082	611.087265365594	989.270984815428	633.881931347932	671.786588678976	1062.932846874935	580.495266964552	590.507926233722	1058.457806422512	492.572022750634	596.518201215612	1108.705096041921	809.179581004238	387.633137474130	1088.641397640835	682.840941710282	295.848798802573	1204.426804564980	639.192489695298	351.280608073383	1240.125445575946	562.887307891291	337.539257143524	1206.283377253954	482.739239104106	327.329591459818	1104.178961691143	379.520478921852	274.536506096070	1160.522677807371	257.799469145831	321.472620862932	1028.702854848233	404.121968620677	601.327840297744	952.652619941710	300.732537491753	658.970662763574	995.665660929221	206.648462023675	594.005748078154	859.828279170408	42.263737558541	555.313080337459	1031.209792723609	98.383050769276	595.442318742386	942.092871220301	36.244279211690	630.638632005575	1150.125487316174	46.503330883685	622.473364776414	1032.669353834801	101.508270245491	354.583167863788	1100.498359112613	100.324992378791	269.657029903561	1187.680299356013	158.239477236774	292.143465869049	1309.571773516198	104.094320377274	251.614117583374	891.292471162098	1092.341460143249	244.065494265704	891.894020923739	831.832503420975	231.380881034382	1150.134099279157	1083.206047630888	787.382502544877	1347.454262398844	918.434195501616	736.715172632777	
